<svg width="253" height="56" viewBox="0 0 253 56" fill="none" xmlns="http://www.w3.org/2000/svg">
<path d="M0 19.2C0 12.4794 0 9.11905 1.30792 6.55211C2.4584 4.29417 4.29417 2.4584 6.55211 1.30792C9.11905 0 12.4794 0 19.2 0H233.8C240.521 0 243.881 0 246.448 1.30792C248.706 2.4584 250.542 4.29417 251.692 6.55211C253 9.11905 253 12.4794 253 19.2V36.8C253 43.5206 253 46.8809 251.692 49.4479C250.542 51.7058 248.706 53.5416 246.448 54.6921C243.881 56 240.521 56 233.8 56H19.2C12.4794 56 9.11905 56 6.55211 54.6921C4.29417 53.5416 2.4584 51.7058 1.30792 49.4479C0 46.8809 0 43.5206 0 36.8V19.2Z" fill="url(#paint0_linear_402_9630)" fill-opacity="0.5"/>
<path d="M44.96 33.192C44.1493 33.192 43.424 33.0533 42.784 32.776C42.144 32.4987 41.6427 32.0933 41.28 31.56C40.9173 31.0267 40.7253 30.3813 40.704 29.624H42.992C43.0027 29.9547 43.088 30.2533 43.248 30.52C43.408 30.7867 43.632 31 43.92 31.16C44.208 31.3093 44.5493 31.384 44.944 31.384C45.2853 31.384 45.5787 31.3307 45.824 31.224C46.08 31.1067 46.2773 30.9467 46.416 30.744C46.5547 30.5413 46.624 30.3013 46.624 30.024C46.624 29.704 46.544 29.4373 46.384 29.224C46.2347 29.0107 46.0213 28.8293 45.744 28.68C45.4667 28.52 45.1467 28.3813 44.784 28.264C44.432 28.136 44.0587 28.008 43.664 27.88C42.7893 27.592 42.1173 27.208 41.648 26.728C41.1893 26.248 40.96 25.6133 40.96 24.824C40.96 24.152 41.12 23.576 41.44 23.096C41.7707 22.616 42.2187 22.248 42.784 21.992C43.36 21.736 44.0213 21.608 44.768 21.608C45.5253 21.608 46.1867 21.7413 46.752 22.008C47.328 22.264 47.7813 22.6373 48.112 23.128C48.4427 23.6187 48.6187 24.1947 48.64 24.856H46.32C46.32 24.6107 46.2507 24.3813 46.112 24.168C45.984 23.944 45.8027 23.768 45.568 23.64C45.3333 23.5013 45.056 23.432 44.736 23.432C44.448 23.4213 44.192 23.464 43.968 23.56C43.744 23.656 43.5627 23.8 43.424 23.992C43.296 24.1733 43.232 24.4027 43.232 24.68C43.232 24.9467 43.296 25.1707 43.424 25.352C43.552 25.5333 43.7333 25.6933 43.968 25.832C44.2133 25.96 44.4907 26.0827 44.8 26.2C45.12 26.3067 45.4667 26.4187 45.84 26.536C46.4053 26.728 46.9173 26.9573 47.376 27.224C47.8453 27.48 48.2187 27.816 48.496 28.232C48.7733 28.648 48.912 29.1973 48.912 29.88C48.912 30.4667 48.7573 31.0107 48.448 31.512C48.1493 32.0133 47.7067 32.4187 47.12 32.728C46.5333 33.0373 45.8133 33.192 44.96 33.192ZM54.3126 33C53.758 33 53.2673 32.9147 52.8406 32.744C52.414 32.5627 52.0833 32.2693 51.8486 31.864C51.614 31.448 51.4966 30.8827 51.4966 30.168V26.776H50.1206V24.968H51.4966L51.7526 22.776H53.6566V24.968H55.7846V26.776H53.6566V30.2C53.6566 30.5627 53.7366 30.8133 53.8966 30.952C54.0566 31.0907 54.3286 31.16 54.7126 31.16H55.7526V33H54.3126ZM60.3073 33.192C59.6353 33.192 59.0806 33.0853 58.6432 32.872C58.2059 32.648 57.8806 32.3547 57.6673 31.992C57.4539 31.6187 57.3473 31.2133 57.3473 30.776C57.3473 30.2747 57.4699 29.8427 57.7153 29.48C57.9713 29.1067 58.3553 28.8133 58.8673 28.6C59.3793 28.3867 60.0193 28.28 60.7873 28.28H62.7873C62.7873 27.8853 62.7339 27.56 62.6273 27.304C62.5206 27.048 62.3553 26.856 62.1313 26.728C61.9073 26.6 61.6086 26.536 61.2352 26.536C60.8299 26.536 60.4833 26.6267 60.1953 26.808C59.9179 26.9787 59.7419 27.2453 59.6673 27.608H57.5713C57.6353 27.032 57.8273 26.536 58.1473 26.12C58.4779 25.6933 58.9099 25.3627 59.4433 25.128C59.9766 24.8933 60.5793 24.776 61.2513 24.776C62.0086 24.776 62.6646 24.904 63.2193 25.16C63.7739 25.4053 64.2006 25.7733 64.4993 26.264C64.7979 26.744 64.9473 27.3307 64.9473 28.024V33H63.1233L62.8833 31.768C62.7659 31.9813 62.6273 32.1733 62.4673 32.344C62.3073 32.5147 62.1206 32.664 61.9073 32.792C61.6939 32.92 61.4539 33.016 61.1873 33.08C60.9206 33.1547 60.6273 33.192 60.3073 33.192ZM60.8193 31.528C61.0966 31.528 61.3419 31.48 61.5553 31.384C61.7793 31.2773 61.9713 31.1387 62.1313 30.968C62.2913 30.7867 62.4139 30.584 62.4993 30.36C62.5953 30.1253 62.6593 29.88 62.6913 29.624V29.608H61.0433C60.7126 29.608 60.4406 29.6507 60.2273 29.736C60.0246 29.8107 59.8753 29.9227 59.7793 30.072C59.6833 30.2213 59.6353 30.392 59.6353 30.584C59.6353 30.7867 59.6833 30.9573 59.7793 31.096C59.8753 31.2347 60.0139 31.3413 60.1953 31.416C60.3766 31.4907 60.5846 31.528 60.8193 31.528ZM66.9466 33V24.968H68.8666L69.0586 26.456C69.2613 26.104 69.5066 25.8053 69.7946 25.56C70.0826 25.304 70.4133 25.112 70.7866 24.984C71.1706 24.8453 71.592 24.776 72.0506 24.776V27.064H71.3306C71.0106 27.064 70.712 27.1013 70.4346 27.176C70.168 27.24 69.9333 27.3573 69.7306 27.528C69.528 27.6987 69.3733 27.928 69.2666 28.216C69.16 28.504 69.1066 28.8667 69.1066 29.304V33H66.9466ZM77.0783 33C76.5236 33 76.0329 32.9147 75.6063 32.744C75.1796 32.5627 74.8489 32.2693 74.6143 31.864C74.3796 31.448 74.2623 30.8827 74.2623 30.168V26.776H72.8863V24.968H74.2623L74.5182 22.776H76.4223V24.968H78.5503V26.776H76.4223V30.2C76.4223 30.5627 76.5023 30.8133 76.6623 30.952C76.8223 31.0907 77.0943 31.16 77.4783 31.16H78.5183V33H77.0783ZM85.1425 36.52L87.0945 32.104H86.6145L83.3825 24.968H85.7185L88.0385 30.136L90.1185 24.968H92.4065L87.4145 36.52H85.1425ZM96.8953 33.192C96.1273 33.192 95.4339 33.016 94.8153 32.664C94.2073 32.3013 93.7219 31.8053 93.3593 31.176C93.0073 30.536 92.8313 29.8053 92.8313 28.984C92.8313 28.152 93.0073 27.4213 93.3593 26.792C93.7219 26.1627 94.2126 25.672 94.8313 25.32C95.4499 24.9573 96.1433 24.776 96.9113 24.776C97.6899 24.776 98.3833 24.9573 98.9913 25.32C99.6099 25.672 100.095 26.1627 100.447 26.792C100.81 27.4213 100.991 28.152 100.991 28.984C100.991 29.8053 100.81 30.536 100.447 31.176C100.095 31.8053 99.6099 32.3013 98.9913 32.664C98.3726 33.016 97.6739 33.192 96.8953 33.192ZM96.8953 31.32C97.2473 31.32 97.5619 31.2347 97.8393 31.064C98.1273 30.8933 98.3566 30.632 98.5273 30.28C98.6979 29.928 98.7833 29.496 98.7833 28.984C98.7833 28.4613 98.6979 28.0293 98.5273 27.688C98.3673 27.336 98.1433 27.0747 97.8553 26.904C97.5779 26.7333 97.2633 26.648 96.9113 26.648C96.5699 26.648 96.2553 26.7333 95.9673 26.904C95.6793 27.0747 95.4499 27.336 95.2793 27.688C95.1086 28.0293 95.0233 28.4613 95.0233 28.984C95.0233 29.496 95.1086 29.928 95.2793 30.28C95.4499 30.632 95.6739 30.8933 95.9513 31.064C96.2393 31.2347 96.5539 31.32 96.8953 31.32ZM105.845 33.192C105.194 33.192 104.634 33.0587 104.165 32.792C103.706 32.5147 103.354 32.1093 103.109 31.576C102.874 31.0427 102.757 30.3867 102.757 29.608V24.968H104.901V29.384C104.901 30.0347 105.034 30.5307 105.301 30.872C105.578 31.2027 106 31.368 106.565 31.368C106.928 31.368 107.248 31.288 107.525 31.128C107.813 30.9573 108.037 30.712 108.197 30.392C108.357 30.072 108.437 29.6827 108.437 29.224V24.968H110.597V33H108.693L108.533 31.688C108.288 32.1467 107.936 32.5147 107.477 32.792C107.029 33.0587 106.485 33.192 105.845 33.192ZM112.712 33V24.968H114.632L114.824 26.456C115.027 26.104 115.272 25.8053 115.56 25.56C115.848 25.304 116.179 25.112 116.552 24.984C116.936 24.8453 117.358 24.776 117.816 24.776V27.064H117.096C116.776 27.064 116.478 27.1013 116.2 27.176C115.934 27.24 115.699 27.3573 115.496 27.528C115.294 27.6987 115.139 27.928 115.032 28.216C114.926 28.504 114.872 28.8667 114.872 29.304V33H112.712ZM123.346 33V24.216C123.346 23.544 123.458 23.0107 123.682 22.616C123.916 22.2213 124.242 21.9333 124.658 21.752C125.074 21.5707 125.564 21.48 126.13 21.48H127.106V23.32H126.466C126.124 23.32 125.879 23.3893 125.73 23.528C125.58 23.656 125.506 23.8853 125.506 24.216V33H123.346ZM122.258 26.776V24.968H127.234V26.776H122.258ZM128.915 33V24.968H130.835L131.027 26.456C131.23 26.104 131.475 25.8053 131.763 25.56C132.051 25.304 132.382 25.112 132.755 24.984C133.139 24.8453 133.561 24.776 134.019 24.776V27.064H133.299C132.979 27.064 132.681 27.1013 132.403 27.176C132.137 27.24 131.902 27.3573 131.699 27.528C131.497 27.6987 131.342 27.928 131.235 28.216C131.129 28.504 131.075 28.8667 131.075 29.304V33H128.915ZM139.178 33.192C138.367 33.192 137.647 33.0213 137.018 32.68C136.399 32.328 135.914 31.8427 135.562 31.224C135.221 30.5947 135.05 29.8747 135.05 29.064C135.05 28.2213 135.221 27.48 135.562 26.84C135.903 26.2 136.383 25.6987 137.002 25.336C137.631 24.9627 138.357 24.776 139.178 24.776C139.978 24.776 140.677 24.952 141.274 25.304C141.871 25.6453 142.335 26.1147 142.666 26.712C143.007 27.3093 143.178 27.9867 143.178 28.744C143.178 28.8507 143.173 28.9733 143.162 29.112C143.162 29.24 143.157 29.3733 143.146 29.512H136.586V28.184H140.986C140.965 27.6827 140.783 27.2827 140.442 26.984C140.101 26.6747 139.685 26.52 139.194 26.52C138.821 26.52 138.479 26.6053 138.17 26.776C137.861 26.9467 137.615 27.2027 137.434 27.544C137.263 27.8747 137.178 28.296 137.178 28.808V29.272C137.178 29.7093 137.258 30.0933 137.418 30.424C137.589 30.744 137.823 30.9947 138.122 31.176C138.421 31.3467 138.767 31.432 139.162 31.432C139.557 31.432 139.882 31.3467 140.138 31.176C140.405 31.0053 140.607 30.7813 140.746 30.504H142.938C142.789 31.016 142.538 31.4747 142.186 31.88C141.834 32.2853 141.402 32.6053 140.89 32.84C140.378 33.0747 139.807 33.192 139.178 33.192ZM148.803 33.192C147.992 33.192 147.272 33.0213 146.643 32.68C146.024 32.328 145.539 31.8427 145.187 31.224C144.846 30.5947 144.675 29.8747 144.675 29.064C144.675 28.2213 144.846 27.48 145.187 26.84C145.528 26.2 146.008 25.6987 146.627 25.336C147.256 24.9627 147.982 24.776 148.803 24.776C149.603 24.776 150.302 24.952 150.899 25.304C151.496 25.6453 151.96 26.1147 152.291 26.712C152.632 27.3093 152.803 27.9867 152.803 28.744C152.803 28.8507 152.798 28.9733 152.787 29.112C152.787 29.24 152.782 29.3733 152.771 29.512H146.211V28.184H150.611C150.59 27.6827 150.408 27.2827 150.067 26.984C149.726 26.6747 149.31 26.52 148.819 26.52C148.446 26.52 148.104 26.6053 147.795 26.776C147.486 26.9467 147.24 27.2027 147.059 27.544C146.888 27.8747 146.803 28.296 146.803 28.808V29.272C146.803 29.7093 146.883 30.0933 147.043 30.424C147.214 30.744 147.448 30.9947 147.747 31.176C148.046 31.3467 148.392 31.432 148.787 31.432C149.182 31.432 149.507 31.3467 149.763 31.176C150.03 31.0053 150.232 30.7813 150.371 30.504H152.563C152.414 31.016 152.163 31.4747 151.811 31.88C151.459 32.2853 151.027 32.6053 150.515 32.84C150.003 33.0747 149.432 33.192 148.803 33.192ZM161.938 33C161.383 33 160.892 32.9147 160.466 32.744C160.039 32.5627 159.708 32.2693 159.474 31.864C159.239 31.448 159.122 30.8827 159.122 30.168V26.776H157.746V24.968H159.122L159.378 22.776H161.282V24.968H163.41V26.776H161.282V30.2C161.282 30.5627 161.362 30.8133 161.522 30.952C161.682 31.0907 161.954 31.16 162.338 31.16H163.378V33H161.938ZM165.212 33V24.968H167.132L167.324 26.456C167.527 26.104 167.772 25.8053 168.06 25.56C168.348 25.304 168.679 25.112 169.052 24.984C169.436 24.8453 169.858 24.776 170.316 24.776V27.064H169.596C169.276 27.064 168.978 27.1013 168.7 27.176C168.434 27.24 168.199 27.3573 167.996 27.528C167.794 27.6987 167.639 27.928 167.532 28.216C167.426 28.504 167.372 28.8667 167.372 29.304V33H165.212ZM171.776 33V24.968H173.936V33H171.776ZM172.864 23.848C172.469 23.848 172.149 23.736 171.904 23.512C171.659 23.2773 171.536 22.984 171.536 22.632C171.536 22.28 171.659 21.992 171.904 21.768C172.149 21.5333 172.469 21.416 172.864 21.416C173.259 21.416 173.579 21.5333 173.824 21.768C174.08 21.992 174.208 22.28 174.208 22.632C174.208 22.984 174.08 23.2773 173.824 23.512C173.579 23.736 173.259 23.848 172.864 23.848ZM178.823 33.192C178.151 33.192 177.596 33.0853 177.159 32.872C176.722 32.648 176.396 32.3547 176.183 31.992C175.97 31.6187 175.863 31.2133 175.863 30.776C175.863 30.2747 175.986 29.8427 176.231 29.48C176.487 29.1067 176.871 28.8133 177.383 28.6C177.895 28.3867 178.535 28.28 179.303 28.28H181.303C181.303 27.8853 181.25 27.56 181.143 27.304C181.036 27.048 180.871 26.856 180.647 26.728C180.423 26.6 180.124 26.536 179.751 26.536C179.346 26.536 178.999 26.6267 178.711 26.808C178.434 26.9787 178.258 27.2453 178.183 27.608H176.087C176.151 27.032 176.343 26.536 176.663 26.12C176.994 25.6933 177.426 25.3627 177.959 25.128C178.492 24.8933 179.095 24.776 179.767 24.776C180.524 24.776 181.18 24.904 181.735 25.16C182.29 25.4053 182.716 25.7733 183.015 26.264C183.314 26.744 183.463 27.3307 183.463 28.024V33H181.639L181.399 31.768C181.282 31.9813 181.143 32.1733 180.983 32.344C180.823 32.5147 180.636 32.664 180.423 32.792C180.21 32.92 179.97 33.016 179.703 33.08C179.436 33.1547 179.143 33.192 178.823 33.192ZM179.335 31.528C179.612 31.528 179.858 31.48 180.071 31.384C180.295 31.2773 180.487 31.1387 180.647 30.968C180.807 30.7867 180.93 30.584 181.015 30.36C181.111 30.1253 181.175 29.88 181.207 29.624V29.608H179.559C179.228 29.608 178.956 29.6507 178.743 29.736C178.54 29.8107 178.391 29.9227 178.295 30.072C178.199 30.2213 178.151 30.392 178.151 30.584C178.151 30.7867 178.199 30.9573 178.295 31.096C178.391 31.2347 178.53 31.3413 178.711 31.416C178.892 31.4907 179.1 31.528 179.335 31.528ZM185.462 33V21.48H187.622V33H185.462Z" fill="white"/>
<path fill-rule="evenodd" clip-rule="evenodd" d="M216 18C216.323 19.5031 217.497 20.6772 219 21C217.497 21.3228 216.323 22.4969 216 24C215.677 22.4969 214.503 21.3228 213 21C214.503 20.6772 215.677 19.5031 216 18ZM206.072 18.2C206.984 22.4447 210.299 25.7605 214.544 26.672C210.299 27.5835 206.984 30.8993 206.072 35.144C205.161 30.8993 201.845 27.5835 197.6 26.672C201.845 25.7605 205.161 22.4447 206.072 18.2ZM219 34C216.996 33.5696 215.43 32.0041 215 30C214.57 32.0041 213.004 33.5696 211 34C213.004 34.4304 214.57 35.9959 215 38C215.43 35.9959 216.996 34.4304 219 34Z" fill="white"/>
<defs>
<linearGradient id="paint0_linear_402_9630" x1="15.9172" y1="2.37735e-05" x2="230.913" y2="45.5854" gradientUnits="userSpaceOnUse">
<stop stop-color="white" stop-opacity="0.26"/>
<stop offset="1" stop-color="white" stop-opacity="0.49"/>
</linearGradient>
</defs>
</svg>
