<svg width="16" height="19" viewBox="0 0 16 19" fill="none" xmlns="http://www.w3.org/2000/svg">
<g clip-path="url(#clip0_259_14482)">
<path d="M9.33463 1.55664H4.0013C3.64768 1.55664 3.30854 1.71739 3.05849 2.00353C2.80844 2.28967 2.66797 2.67776 2.66797 3.08243V15.2887C2.66797 15.6934 2.80844 16.0815 3.05849 16.3676C3.30854 16.6538 3.64768 16.8145 4.0013 16.8145H12.0013C12.3549 16.8145 12.6941 16.6538 12.9441 16.3676C13.1942 16.0815 13.3346 15.6934 13.3346 15.2887V6.134M9.33463 1.55664L13.3346 6.134M9.33463 1.55664L9.33464 6.134H13.3346M10.668 9.94847H5.33464M10.668 13H5.33464M6.66797 6.89689H5.33464" stroke="#6DA2FF" stroke-width="1.6" stroke-linecap="round" stroke-linejoin="round"/>
</g>
<defs>
<clipPath id="clip0_259_14482">
<rect width="16" height="18.3094" fill="white" transform="translate(0 0.0307617)"/>
</clipPath>
</defs>
</svg>
