<svg width="24" height="24" viewBox="0 0 24 24" fill="none" xmlns="http://www.w3.org/2000/svg">
<path d="M15.6687 14.097L12.0187 16.225L8.34973 14.13L5.49973 12.5V6.49999C5.49973 6.20399 5.52573 5.91499 5.57473 5.63299M12.0187 16.227L9.18273 17.88L3.98673 14.88C3.73481 14.7349 3.49592 14.5683 3.27273 14.382M5.57473 5.63299C5.73944 4.69928 6.16617 3.83063 6.80519 3.1302C7.44421 2.42977 8.26917 1.92542 9.18389 1.67596C10.0986 1.4265 11.0654 1.44221 11.9715 1.72125C12.8777 2.00029 13.6858 2.53117 14.3017 3.25199M5.57473 5.63299C4.6425 5.80601 3.77867 6.24047 3.08395 6.88572C2.38924 7.53097 1.89226 8.36042 1.65097 9.27735C1.40969 10.1943 1.43403 11.1609 1.72117 12.0645C2.00831 12.9681 2.54641 13.7715 3.27273 14.381C2.95661 15.2748 2.90107 16.2401 3.11259 17.1642C3.3241 18.0884 3.79395 18.9334 4.46737 19.6007C5.14078 20.2681 5.99001 20.7302 6.91606 20.9334C7.84211 21.1365 8.80682 21.0722 9.69773 20.748M8.34973 14.129L8.33173 9.90399L8.31673 6.62099L13.5127 3.62099C13.7645 3.47522 14.0285 3.35174 14.3017 3.25199M14.3017 3.25199C15.1926 2.92778 16.1573 2.86349 17.0834 3.06661C18.0094 3.26974 18.8587 3.73191 19.5321 4.39924C20.2055 5.06658 20.6754 5.91159 20.8869 6.83576C21.0984 7.75992 21.0428 8.72518 20.7267 9.61899M20.7267 9.61899C20.5067 9.43599 20.2677 9.26899 20.0117 9.12099L14.8157 6.12099L11.9797 7.77499L8.32973 9.90399M20.7267 9.61899C21.453 10.2284 21.9911 11.0318 22.2783 11.9354C22.5654 12.8391 22.5898 13.8057 22.3485 14.7226C22.1072 15.6396 21.6102 16.469 20.9155 17.1143C20.2208 17.7595 19.357 18.194 18.4247 18.367M11.9807 7.77499L15.6497 9.87099M15.6497 9.87099L18.4997 11.5V17.5C18.4997 17.796 18.4737 18.085 18.4247 18.367M15.6497 9.87099L15.6677 14.096L15.6827 17.379L10.4867 20.379C10.2349 20.5245 9.97088 20.648 9.69773 20.748M18.4247 18.367C18.26 19.3007 17.8333 20.1693 17.1943 20.8698C16.5553 21.5702 15.7303 22.0746 14.8156 22.324C13.9009 22.5735 12.9341 22.5578 12.0279 22.2787C11.1218 21.9997 10.3137 21.4688 9.69773 20.748" stroke="#42526E" stroke-width="2" stroke-linejoin="round"/>
</svg>
