<svg width="24" height="24" viewBox="0 0 24 24" fill="none" xmlns="http://www.w3.org/2000/svg">
<rect width="24" height="24" fill="white" fill-opacity="0.01"/>
<path d="M22.1715 20.4422C22.1757 21.2446 21.8353 22.0103 21.2368 22.5447C20.6383 23.0792 19.8392 23.3311 19.0424 23.2364C17.6085 23.0243 16.5577 21.7765 16.5926 20.3274V3.66752C16.558 2.21687 17.6114 0.968484 19.0471 0.758494C19.8432 0.665321 20.641 0.917872 21.2384 1.45216C21.8358 1.98645 22.1755 2.75121 22.1715 3.55269V20.4422Z" fill="#42526E"/>
<path d="M4.61753 17.6817C6.15807 17.6817 7.40693 18.9306 7.40693 20.4711C7.40693 22.0117 6.15807 23.2605 4.61753 23.2605C3.07698 23.2605 1.82812 22.0117 1.82812 20.4711C1.82812 18.9306 3.07698 17.6817 4.61753 17.6817ZM11.9571 9.22738C10.4092 9.31222 9.2083 10.6106 9.24422 12.1603V19.6529C9.24422 21.6864 10.1389 22.9208 11.4499 23.184C12.2729 23.3508 13.1273 23.1386 13.7767 22.6061C14.426 22.0736 14.8014 21.2774 14.7991 20.4376V12.0311C14.8005 11.2804 14.5002 10.5607 13.9658 10.0335C13.4314 9.50626 12.7077 9.21583 11.9571 9.22738Z" fill="#42526E"/>
</svg>
